<svg id="Layer_1" data-name="Layer 1" xmlns="http://www.w3.org/2000/svg" viewBox="0 0 255.5 104.5"><defs><style>.cls-1{fill:#fff;}.cls-2{fill:#3478ff;}</style></defs><title>ITaims Final Logo</title><path class="cls-1" d="M227,57.39c1.81,0,3.53,0,5.25,0a.51.51,0,0,1,.34.36c.16,2.64,3.09,3.27,5,2.67a2.72,2.72,0,0,0,2.15-3.09,2.08,2.08,0,0,0-1.48-1.66c-1.18-.35-2.4-.57-3.6-.85a29.41,29.41,0,0,1-3.54-.83c-3.86-1.41-4.93-6.48-2.08-9.72a8.25,8.25,0,0,1,5.6-2.65,11.86,11.86,0,0,1,6.35.84A6.41,6.41,0,0,1,244.65,49h-5.39a2.34,2.34,0,0,1-.08-.35,2.59,2.59,0,0,0-1.73-2.47,3.43,3.43,0,0,0-3.51.53,2.09,2.09,0,0,0,.45,3.64,24.93,24.93,0,0,0,3.58.93c1.13.27,2.3.44,3.39.82a5.65,5.65,0,0,1,4,6.38,6.18,6.18,0,0,1-3.81,5.44,12.66,12.66,0,0,1-11.06-.13C228,62.51,227,60.24,227,57.39"/><path class="cls-1" d="M166.46,63.91H160V62.83c0-4,0-8.09,0-12.13a8.2,8.2,0,1,0-8.9,8,8.53,8.53,0,0,0,6.19-2,7.7,7.7,0,0,1,.09.76,21.39,21.39,0,0,0,0,2.92c.24,1.59-.51,2.35-1.85,3a13,13,0,0,1-18.37-9c-2.63-11.2,6.65-18.71,15.7-18,6.65.55,11.72,4.68,13.26,10.8a12,12,0,0,1,.38,2.8c0,4.43,0,8.85,0,13.28,0,.15,0,.29,0,.55"/><path class="cls-1" d="M191.87,64.74h-6.52c0-.32-.05-.61-.05-.9,0-5.23,0-10.45,0-15.68,0-5.92,4.18-10.26,10.32-10.88a11.08,11.08,0,0,1,12,8.67,10.6,10.6,0,0,1,.19,2.11q0,7.88,0,15.77c0,.29,0,.57-.05.9H201.3c0-.33-.06-.67-.06-1,0-5.17,0-10.33,0-15.5a4.68,4.68,0,1,0-9.35-.34c-.06,1.86,0,3.72,0,5.58q0,5.09,0,10.19Z"/><path class="cls-1" d="M209.09,43.91c-.47-1-.85-1.88-1.37-2.73s-1.17-1.61-1.79-2.46a11.57,11.57,0,0,1,5.39-1.54,11.08,11.08,0,0,1,11.34,8.3,10.76,10.76,0,0,1,.29,2.54c0,5.26,0,10.51,0,15.77,0,.73-.2,1-.94.94-1.85-.05-3.7,0-5.67,0v-1c0-5-.18-10,.06-15.06.19-4-3.55-6.81-7.33-4.71"/><path class="cls-1" d="M173.26,45.89h6.43V64.74c-2,0-4,0-6,0-.15,0-.32-.24-.44-.4s0-.23,0-.35c0-8.45,0-9,0-17.47,0-.17,0-.35.06-.61"/><path class="cls-1" d="M176.48,42.55a3.19,3.19,0,0,1-3.26-3.17,3.25,3.25,0,0,1,6.51,0,3.19,3.19,0,0,1-3.25,3.18"/><polygon class="cls-1" points="120.27 64.7 114.12 64.7 114.12 37.6 105.88 37.6 105.88 31.95 120.27 31.95 120.27 64.7"/><rect class="cls-1" x="96.39" y="31.94" width="6.09" height="32.74"/><rect class="cls-1" x="122.85" y="31.95" width="5.72" height="5.59"/><path class="cls-1" d="M103.37,84.18H99.28l-.85,2.46H96.52l4-10.56h1.65l4,10.56h-1.91ZM99.79,82.7h3.06l-1.53-4.38Z"/><path class="cls-1" d="M111,86.63h-1.83V76.08H111Z"/><path class="cls-1" d="M117.44,76.08l3,8.09,3-8.09h2.37V86.63h-1.83V83.15l.18-4.65-3.12,8.14h-1.31l-3.11-8.13.18,4.65v3.48h-1.83V76.08Z"/><path class="cls-1" d="M135.75,86.63V80.09h-1.2v-1.3h1.2V78a3.24,3.24,0,0,1,.19-1.16,2.27,2.27,0,0,1,.55-.85,2.34,2.34,0,0,1,.87-.52,3.71,3.71,0,0,1,1.65-.14l.48.09,0,1.38-.32,0h-.36a1.28,1.28,0,0,0-.94.32,1.25,1.25,0,0,0-.33.94v.74h1.59v1.3h-1.59v6.54Z"/><path class="cls-1" d="M141.83,82.64a4.85,4.85,0,0,1,.25-1.58,3.77,3.77,0,0,1,.72-1.27,3.29,3.29,0,0,1,1.14-.84,3.68,3.68,0,0,1,1.53-.3,3.75,3.75,0,0,1,1.54.3,3.27,3.27,0,0,1,1.15.84,3.71,3.71,0,0,1,.71,1.27,4.92,4.92,0,0,1,.25,1.58v.15a5,5,0,0,1-.25,1.59,3.66,3.66,0,0,1-.71,1.27,3.26,3.26,0,0,1-1.15.83,4.08,4.08,0,0,1-3.07,0,3.27,3.27,0,0,1-1.15-.83,3.72,3.72,0,0,1-.72-1.27,4.88,4.88,0,0,1-.25-1.59Zm1.76.15a4.43,4.43,0,0,0,.11,1,2.5,2.5,0,0,0,.34.82,1.64,1.64,0,0,0,1.44.76,1.63,1.63,0,0,0,1.43-.76,2.61,2.61,0,0,0,.34-.82,4.33,4.33,0,0,0,.11-1v-.15a4.26,4.26,0,0,0-.11-1,2.57,2.57,0,0,0-.34-.82,1.77,1.77,0,0,0-.59-.56,1.66,1.66,0,0,0-.85-.21,1.62,1.62,0,0,0-.84.21,1.8,1.8,0,0,0-.58.56,2.5,2.5,0,0,0-.34.82,4.36,4.36,0,0,0-.11,1Z"/><path class="cls-1" d="M156.49,80.4l-.35,0h-.37a2,2,0,0,0-1,.25,1.51,1.51,0,0,0-.59.68v5.37h-1.76V78.79h1.68l0,.88a2.28,2.28,0,0,1,.74-.75,1.92,1.92,0,0,1,1-.27,2,2,0,0,1,.34,0,1.4,1.4,0,0,1,.28.07Z"/><path class="cls-1" d="M168.05,85.37a1.79,1.79,0,0,0,.6-.1,1.49,1.49,0,0,0,.49-.27,1.4,1.4,0,0,0,.33-.42,1.3,1.3,0,0,0,.14-.54h1.66A2.52,2.52,0,0,1,171,85.1a2.91,2.91,0,0,1-.69.87,3.26,3.26,0,0,1-1,.59,3.47,3.47,0,0,1-1.22.21,3.72,3.72,0,0,1-1.58-.31,3.15,3.15,0,0,1-1.12-.85,3.56,3.56,0,0,1-.66-1.25,5.25,5.25,0,0,1-.22-1.52v-.25a5.25,5.25,0,0,1,.22-1.52,3.59,3.59,0,0,1,.66-1.26A3.16,3.16,0,0,1,166.5,79a4.06,4.06,0,0,1,2.87-.09,3,3,0,0,1,1,.61,2.79,2.79,0,0,1,.65.94,3.25,3.25,0,0,1,.26,1.2h-1.66a1.82,1.82,0,0,0-.13-.59,1.53,1.53,0,0,0-.31-.49,1.45,1.45,0,0,0-.48-.33,1.58,1.58,0,0,0-.64-.12,1.54,1.54,0,0,0-1.44.8,2.42,2.42,0,0,0-.28.81,5.58,5.58,0,0,0-.08.92v.25a5.59,5.59,0,0,0,.08.93,2.42,2.42,0,0,0,.28.81,1.61,1.61,0,0,0,.55.57A1.64,1.64,0,0,0,168.05,85.37Z"/><path class="cls-1" d="M178.48,80.4l-.35,0h-.37a2,2,0,0,0-1,.25,1.51,1.51,0,0,0-.59.68v5.37h-1.76V78.79H176l0,.88a2.28,2.28,0,0,1,.74-.75,1.92,1.92,0,0,1,1-.27,2,2,0,0,1,.34,0,1.4,1.4,0,0,1,.28.07Z"/><path class="cls-1" d="M184.68,86.78a4,4,0,0,1-1.57-.29,3.44,3.44,0,0,1-1.18-.8,3.49,3.49,0,0,1-.75-1.2,4.24,4.24,0,0,1-.26-1.5V82.7A4.83,4.83,0,0,1,181.2,81a3.82,3.82,0,0,1,.75-1.28,3.32,3.32,0,0,1,1.13-.81,3.41,3.41,0,0,1,1.4-.29,3.57,3.57,0,0,1,1.49.29,2.8,2.8,0,0,1,1,.8,3.44,3.44,0,0,1,.62,1.22,5.66,5.66,0,0,1,.2,1.56v.75H182.7a2.82,2.82,0,0,0,.19.84,2.08,2.08,0,0,0,.42.66,2,2,0,0,0,.63.44,2.06,2.06,0,0,0,.83.16,2.35,2.35,0,0,0,1.13-.26,2.67,2.67,0,0,0,.84-.72l.95.91a3.25,3.25,0,0,1-.47.55,3.19,3.19,0,0,1-.65.47,3.74,3.74,0,0,1-.84.33A4.07,4.07,0,0,1,184.68,86.78Zm-.21-6.72a1.48,1.48,0,0,0-1.17.51,2.63,2.63,0,0,0-.57,1.41h3.36v-.13a3.23,3.23,0,0,0-.11-.67,1.71,1.71,0,0,0-.28-.57,1.35,1.35,0,0,0-.49-.4A1.66,1.66,0,0,0,184.47,80.06Z"/><path class="cls-1" d="M195.66,86.63a1.49,1.49,0,0,1-.12-.33c0-.13-.06-.26-.08-.41a3.1,3.1,0,0,1-.39.34,2.63,2.63,0,0,1-.47.28,2.81,2.81,0,0,1-.56.19,2.87,2.87,0,0,1-.64.07,3.17,3.17,0,0,1-1.08-.18,2.54,2.54,0,0,1-.84-.49,2.27,2.27,0,0,1-.55-.74,2.17,2.17,0,0,1-.2-.93,2.49,2.49,0,0,1,.24-1.12,2.16,2.16,0,0,1,.7-.81,3.34,3.34,0,0,1,1.12-.5,6.11,6.11,0,0,1,1.51-.17h1.11v-.52a1.38,1.38,0,0,0-.34-1,1.35,1.35,0,0,0-1-.37,1.81,1.81,0,0,0-.57.08,1.37,1.37,0,0,0-.43.22,1,1,0,0,0-.28.34.93.93,0,0,0-.1.42h-1.76a1.89,1.89,0,0,1,.23-.9,2.45,2.45,0,0,1,.65-.77,3.3,3.3,0,0,1,1-.54,4.48,4.48,0,0,1,2.56,0,2.74,2.74,0,0,1,1,.51,2.28,2.28,0,0,1,.63.84,2.88,2.88,0,0,1,.22,1.18v3.48a4,4,0,0,0,.3,1.69v.12Zm-1.94-1.27a2,2,0,0,0,.57-.08,2.09,2.09,0,0,0,.48-.21,1.79,1.79,0,0,0,.37-.3,1.71,1.71,0,0,0,.25-.34V83h-.95a2.61,2.61,0,0,0-1.47.34,1.1,1.1,0,0,0-.49,1,1.2,1.2,0,0,0,.08.44,1,1,0,0,0,.24.35,1.14,1.14,0,0,0,.39.23A1.56,1.56,0,0,0,193.73,85.37Z"/><path class="cls-1" d="M203,76.88v1.91h1.38v1.3H203v4.38a1.38,1.38,0,0,0,.06.44.57.57,0,0,0,.17.26.6.6,0,0,0,.26.12,1.55,1.55,0,0,0,.33,0l.35,0,.26,0v1.36l-.49.11a3.56,3.56,0,0,1-.67.05,2.73,2.73,0,0,1-.81-.12,1.6,1.6,0,0,1-.64-.38,1.76,1.76,0,0,1-.42-.68,3,3,0,0,1-.15-1V80.09h-1.29v-1.3h1.29V76.88Z"/><path class="cls-1" d="M207.5,76.75a.94.94,0,0,1,.26-.67,1.15,1.15,0,0,1,1.48,0,.93.93,0,0,1,.26.67.91.91,0,0,1-.26.66,1.16,1.16,0,0,1-1.48,0A.91.91,0,0,1,207.5,76.75Zm1.87,9.88h-1.76V78.79h1.76Z"/><path class="cls-1" d="M215.82,84.4l1.66-5.61h1.82l-2.72,7.84h-1.53l-2.74-7.84h1.83Z"/><path class="cls-1" d="M224.29,86.63h-1.83V76.08h1.83Z"/><path class="cls-1" d="M235.73,77.56h-3.29v9.08h-1.82V77.56h-3.26V76.08h8.37Z"/><path class="cls-1" d="M240.86,84.11l1.59-5.32h1.88l-3.12,9a5.7,5.7,0,0,1-.29.64,2.73,2.73,0,0,1-.46.64,2.43,2.43,0,0,1-.7.5,2.26,2.26,0,0,1-1,.2,2.48,2.48,0,0,1-.45,0l-.4-.09V88.31l.17,0h.16a2.63,2.63,0,0,0,.57-.05,1.18,1.18,0,0,0,.42-.18,1.2,1.2,0,0,0,.31-.33,2.21,2.21,0,0,0,.23-.5l.25-.67-2.75-7.81h1.9Z"/><path class="cls-1" d="M71.11,85.82c-4.13,0-8,0-11.84,0-3.2,0-2.53.61-3.45-2.61-4.81-16.73-14.88-52-14.88-52l-.93,0c0,.06-1,3.5-1.22,4.43a10.38,10.38,0,0,1-10,7.53H23.86q4.44-13.54,8.86-27.08a1.69,1.69,0,0,1,1.91-1.4c3.69.07,7.38.13,11.07,0,1.63-.06,2.29.5,2.78,2q10.57,32.4,21.25,64.77c.45,1.37.86,2.73,1.37,4.34"/><path class="cls-1" d="M10.07,85.82c4.56,0,9,0,13.49-.05.42,0,1-.7,1.2-1.19,1-3.34,2-6.71,2.93-10.1a1.81,1.81,0,0,1,2.12-1.6c5.08.07,10.16,0,15.24,0h2.33c-.5-1.76-.93-3.29-1.37-4.82-.59-2-1.24-4-1.77-6.09-.25-1-.64-1.42-1.71-1.41-7.74,0-15.48,0-23.22.07a2,2,0,0,0-1.53,1.07c-2.58,7.67-5.08,15.37-7.59,23.07a5.77,5.77,0,0,0-.11,1"/><path class="cls-2" d="M33.83,50.81a6,6,0,1,1-6-6,6,6,0,0,1,6,6"/></svg>